<?xml version="1.0" standalone="no"?>
<!DOCTYPE svg PUBLIC "-//W3C//DTD SVG 20010904//EN"
 "http://www.w3.org/TR/2001/REC-SVG-20010904/DTD/svg10.dtd">
<svg version="1.0" xmlns="http://www.w3.org/2000/svg"
 width="200.000000pt" height="200.000000pt" viewBox="0 0 200.000000 200.000000"
 preserveAspectRatio="xMidYMid meet">
<metadata>
Created by potrace 1.11, written by Peter Selinger 2001-2013
</metadata>
<g transform="translate(0.000000,200.000000) scale(0.100000,-0.100000)"
fill="#000000" stroke="none">
<path d="M1211 1373 c-19 -16 -22 -30 -24 -113 -2 -52 0 -132 3 -178 3 -45 2
-82 -3 -82 -4 0 -16 5 -26 12 -25 15 -49 4 -61 -28 -8 -21 -5 -35 15 -73 14
-25 39 -61 55 -78 30 -32 45 -90 28 -115 -6 -10 -19 -1 -51 34 l-43 48 -42
-31 c-23 -17 -42 -36 -42 -43 0 -13 61 -89 95 -118 27 -24 80 -23 105 2 21 21
28 43 33 103 1 20 5 38 7 38 3 1 23 -4 45 -10 28 -8 47 -21 65 -48 14 -20 31
-43 39 -50 22 -22 41 3 41 56 0 42 4 48 40 74 41 29 53 63 25 73 -8 3 -22 -1
-30 -10 -17 -17 -34 -21 -36 -8 0 4 -3 16 -5 27 -2 11 -6 111 -8 223 -1 111
-6 205 -9 209 -4 3 -15 -2 -26 -11 -17 -15 -19 -29 -16 -119 7 -188 7 -318 2
-323 -10 -10 -81 37 -112 74 l-30 35 1 223 c0 123 -3 224 -7 224 -4 0 -16 -8
-28 -17z"/>
<path d="M851 1244 c-30 -25 -41 -53 -21 -55 6 -1 15 -3 20 -4 6 -1 14 -3 19
-4 23 -3 74 -58 97 -104 37 -71 39 -138 7 -205 -38 -79 -106 -106 -156 -59
-36 32 -47 78 -43 172 5 117 -9 116 -70 -2 -52 -102 -111 -177 -144 -186 -13
-3 -31 3 -47 17 -22 19 -27 34 -31 83 -5 74 15 148 70 261 29 60 38 86 30 94
-19 19 -39 -8 -107 -146 -79 -162 -101 -242 -96 -348 1 -38 49 -88 87 -92 61
-8 115 35 197 158 l44 65 -5 -52 c-15 -183 113 -227 245 -84 79 85 114 185
110 310 -3 65 -8 91 -27 125 -45 80 -122 104 -179 56z"/>
</g>
</svg>
